# xmcd
#
# Track frame offsets: 
#        150
#        25202
#        48507
#
# Disc length: 978 seconds
#
# Revision: 3
# Processed by: cddbd v1.5.2PL0 Copyright (c) Steve Scherf et al.
# Submitted via: ExactAudioCopyFreeDBPlugin 1.0
#
DISCID=1e03d003
DTITLE=ZARD - こんなにそばに居るのに
DYEAR=1994
DGENRE=JPop
TTITLE0=こんなにそばに居るのに
TTITLE1=あなたのせいじゃない
TTITLE2=こんなにそばに居るのに（オリジナル・カラオケ）
EXTD=
EXTT0=
EXTT1=
EXTT2=
PLAYORDER=
